<svg id="Layer_1" data-name="Layer 1" xmlns="http://www.w3.org/2000/svg" xmlns:xlink="http://www.w3.org/1999/xlink" viewBox="0 0 1080 1080"><defs><style>.cls-1{fill:#2cc57d;}.cls-2{fill:url(#linear-gradient);}.cls-3{fill:#172e62;}.cls-4{fill:#0c3a3a;}.cls-5{fill:url(#linear-gradient-2);}</style><linearGradient id="linear-gradient" x1="579.64" y1="467.11" x2="615.21" y2="502.68" gradientUnits="userSpaceOnUse"><stop offset="0" stop-color="#172e62"/><stop offset="1" stop-color="#2cc57d"/></linearGradient><linearGradient id="linear-gradient-2" x1="339.36" y1="508.56" x2="703.06" y2="508.56" xlink:href="#linear-gradient"/></defs><path class="cls-1" d="M668.66,335.53a4.5,4.5,0,1,0-4.48-4.48A4.48,4.48,0,0,0,668.66,335.53Zm0-8.25a3.76,3.76,0,1,1-3.75,3.75A3.76,3.76,0,0,1,668.67,327.28Z"/><path class="cls-1" d="M668.08,331.9c.19,0,.37,0,.55,0a.29.29,0,0,1,.31.17c.24.43.49.84.74,1.26,0,.06.11.14.16.14H671c-.36-.63-.71-1.22-1.06-1.81l.07-.05a1.66,1.66,0,0,0-.94-3H667v4.87h1.12Zm0-2.31c.36,0,.72,0,1.07,0a.51.51,0,0,1,.25.15.76.76,0,0,1,0,1,.47.47,0,0,1-.29.14c-.34,0-.67,0-1,0Z"/><path class="cls-2" d="M632,485.68c-25,4.1-29.67,8.78-33.78,33.77a.8.8,0,0,1-1.57,0c-4.11-25-8.79-29.67-33.78-33.77a.8.8,0,0,1,0-1.58c25-4.1,29.67-8.78,33.78-33.77a.8.8,0,0,1,1.57,0c4.11,25,8.79,29.67,33.78,33.77a.8.8,0,0,1,0,1.58Z"/><path class="cls-3" d="M534,719.35v5.29a25.08,25.08,0,0,1-12.2,2.88,18.86,18.86,0,0,1-9.54-2.25A16.63,16.63,0,0,1,506,719a16.81,16.81,0,0,1-2.29-8.58A16.39,16.39,0,0,1,509,698.13a17.93,17.93,0,0,1,12.89-5,30.25,30.25,0,0,1,11.75,2.76v5.17a23,23,0,0,0-11.51-3.37,13.31,13.31,0,0,0-9.57,3.64,12.1,12.1,0,0,0-3.81,9.12,12,12,0,0,0,3.75,9.09A13.34,13.34,0,0,0,522,723.1,21.73,21.73,0,0,0,534,719.35Z"/><path class="cls-3" d="M540,727.14V693.57h8.41a12.16,12.16,0,0,1,8.09,2.52,8.48,8.48,0,0,1,3,6.83,8.4,8.4,0,0,1-5.67,8.26,14.87,14.87,0,0,1,3.14,2.89,56.63,56.63,0,0,1,4.33,6.37c1.17,1.9,2.11,3.34,2.81,4.3l1.78,2.4h-5.72l-1.46-2.21-.29-.41-.94-1.32L556,720.74l-1.6-2.62a27.44,27.44,0,0,0-2.73-3.29,10.54,10.54,0,0,0-2.24-1.76,7.51,7.51,0,0,0-3.35-.54h-1.26v14.61Zm6.25-29.49h-1.45v10.6h1.83a13.69,13.69,0,0,0,5-.62,4.75,4.75,0,0,0,2.12-1.89,5.51,5.51,0,0,0,.75-2.87,5.11,5.11,0,0,0-.84-2.87,4.54,4.54,0,0,0-2.36-1.82A17.19,17.19,0,0,0,546.26,697.65Z"/><path class="cls-3" d="M569.59,693.57h19v4.28H574.4v10.23h13.74v4.3H574.4v10.43h14.68v4.28H569.59Z"/><path class="cls-3" d="M602.51,713.07l-3.65-2.22a16.54,16.54,0,0,1-4.89-4.12,7.85,7.85,0,0,1-1.45-4.68,8.24,8.24,0,0,1,2.75-6.44,10.26,10.26,0,0,1,7.15-2.47,13.48,13.48,0,0,1,7.71,2.36V701a11.15,11.15,0,0,0-7.81-3.49,6.51,6.51,0,0,0-3.87,1.09,3.31,3.31,0,0,0-1.51,2.79,4.27,4.27,0,0,0,1.11,2.82,14.18,14.18,0,0,0,3.59,2.77l3.67,2.17q6.13,3.67,6.14,9.34a8.57,8.57,0,0,1-2.7,6.56,9.9,9.9,0,0,1-7,2.52,14.73,14.73,0,0,1-9.06-3v-6.11q3.89,4.93,9,4.93a5.63,5.63,0,0,0,3.76-1.25,4,4,0,0,0,1.5-3.15Q606.93,715.83,602.51,713.07Z"/><path class="cls-3" d="M645.67,719.35v5.29a25.09,25.09,0,0,1-12.21,2.88,18.86,18.86,0,0,1-9.54-2.25,16.7,16.7,0,0,1-6.2-6.23,16.9,16.9,0,0,1-2.28-8.58,16.39,16.39,0,0,1,5.23-12.33,17.93,17.93,0,0,1,12.89-5,30.29,30.29,0,0,1,11.75,2.76v5.17a23.08,23.08,0,0,0-11.51-3.37,13.34,13.34,0,0,0-9.58,3.64,12.1,12.1,0,0,0-3.81,9.12,12,12,0,0,0,3.75,9.09,13.38,13.38,0,0,0,9.59,3.55A21.75,21.75,0,0,0,645.67,719.35Z"/><path class="cls-3" d="M651.58,693.57h19v4.28H656.39v10.23h13.74v4.3H656.39v10.43h14.68v4.28H651.58Z"/><path class="cls-3" d="M702.86,693.57h4.57v33.57h-4.14l-22.44-25.85v25.85h-4.52V693.57h3.9l22.63,26.07Z"/><path class="cls-3" d="M711.75,693.52h28v4.28H728.09v29.34h-4.83V697.8H711.75Z"/><path class="cls-1" d="M509.74,760.29l1.06-1.13a9.2,9.2,0,0,0,6.9,3.18c3.59,0,5.85-1.92,5.85-4.72s-1.92-3.87-4.23-4.91l-3.57-1.6c-2-.91-4.77-2.37-4.77-5.85s2.93-5.79,6.84-5.79a9,9,0,0,1,6.55,2.81l-1,1.09a7.5,7.5,0,0,0-5.6-2.41c-3.11,0-5.19,1.66-5.19,4.2,0,2.74,2.35,3.78,4.07,4.53l3.55,1.59c2.64,1.18,5,2.63,5,6.22s-3,6.33-7.52,6.33A10.33,10.33,0,0,1,509.74,760.29Z"/><path class="cls-1" d="M528.63,751.6c0-7.45,4.07-12.13,10-12.13a8.11,8.11,0,0,1,6.12,2.81l-1,1.1a6.69,6.69,0,0,0-5.14-2.42c-5.15,0-8.34,4.1-8.34,10.62s3.15,10.76,8.2,10.76a7.56,7.56,0,0,0,6-2.9l1,1a8.7,8.7,0,0,1-7,3.36C532.67,763.83,528.63,759.07,528.63,751.6Z"/><path class="cls-1" d="M550.26,739.89h1.64V750.2h12.58V739.89h1.64V763.4h-1.64V751.63H551.9V763.4h-1.64Z"/><path class="cls-1" d="M571.55,751.57c0-7.44,4-12.1,9.68-12.1s9.68,4.67,9.68,12.1-4,12.26-9.68,12.26S571.55,759,571.55,751.57Zm17.64,0c0-6.52-3.19-10.61-8-10.61s-8,4.09-8,10.61,3.19,10.77,8,10.77S589.19,758.1,589.19,751.57Z"/><path class="cls-1" d="M594.81,751.57c0-7.44,4-12.1,9.68-12.1s9.68,4.67,9.68,12.1-4,12.26-9.68,12.26S594.81,759,594.81,751.57Zm17.65,0c0-6.52-3.19-10.61-8-10.61s-8,4.09-8,10.61,3.19,10.77,8,10.77S612.46,758.1,612.46,751.57Z"/><path class="cls-1" d="M619.58,739.89h1.65V762h10.83v1.41H619.58Z"/><polygon class="cls-4" points="488.06 715.41 488.07 715.41 488.06 715.4 488.06 715.41"/><path class="cls-4" d="M490.89,710.71h0Z"/><path class="cls-4" d="M491.8,714.51h0v0h0Z"/><path class="cls-4" d="M492.13,712.49h0v0Z"/><path class="cls-4" d="M490,715.74h0Z"/><path class="cls-4" d="M486.8,713.63v0a0,0,0,0,0,0,0Z"/><path class="cls-5" d="M476.62,665.53c23.27-38.35,58.91-71,102.53-83.85,58.53-17,103.17,10.34,122.81,66.6l1.1,3.09a196.83,196.83,0,0,1-38.75,11.88c-64.83,13.59-124.54-14.48-162.21-67.54-46.4-65.14-49.69-152.58,7.29-212.44,3-3.24,6.73-6.63,9.94-9.7,2.58-2.09,6.32-5.35,8.88-7.45,1.46-1.12,7.83-5.65,9.37-6.81,3.9-2.5,7.8-5,11.8-7.37,3.77-1.95,8.45-4.74,12.33-6.44a219.42,219.42,0,0,1,21.49-8.76c4.08-1.16,9.23-3,13.36-3.94,2.83-.51,10.74-2.7,13.62-3,2.26-.32,6.92-1.17,9.18-1.5,3.59-.53,10.32-1,13.89-1.39l-1.21,6C570.34,301.86,494.67,310.2,437.31,347,304.07,429.88,327,606.44,447.63,689.44a259.61,259.61,0,0,0,35.87,20.65l-.32.71a242.89,242.89,0,0,1-69.88-45c-41.14-38-68.69-91.16-73.06-147.34-11.82-120.26,97.57-215.08,213.28-212.1,32.09.61,63.28,10.8,91.36,25.91l-11.28.92c-5.33.43-12.75.93-17.93,1.83-2.75.36-6.26.87-8.91,1.43-3.32.78-10.09,2-13.19,3-2.19.66-6.52,1.79-8.7,2.43-4.28,1.43-8.54,3-12.77,4.51-1.71.82-8.89,3.75-10.39,4.45-2.92,1.39-7.14,3.68-10.07,5.12-33,18-60.62,47.27-73.46,82.93-27.87,75.13,12.51,164,80.6,202.29,42.06,24.49,94.37,22.93,138.65,5l-2,4.34c-17-49.22-53.71-76.43-106.43-66.08-23.15,4.47-44.67,15.46-63.4,29.62-19,14.19-35,32.15-48.35,51.85l-.66-.42Z"/></svg>